<svg xmlns="http://www.w3.org/2000/svg" viewBox="0 0 540 675" preserveAspectRatio="xMidYMid slice">
  <defs>
    <linearGradient id="bg" x1="0%" y1="0%" x2="0%" y2="100%">
      <stop offset="0%" stop-color="#F7F5F0"></stop>
      <stop offset="100%" stop-color="#EFE8DA"></stop>
    </linearGradient>
    <linearGradient id="silhouette" x1="0%" y1="0%" x2="0%" y2="100%">
      <stop offset="0%" stop-color="#1A1410"></stop>
      <stop offset="50%" stop-color="#0E0B09"></stop>
      <stop offset="100%" stop-color="#2A1F18"></stop>
    </linearGradient>
    <linearGradient id="rim" x1="0%" y1="0%" x2="100%" y2="0%">
      <stop offset="0%" stop-color="#D3A357" stop-opacity="0"></stop>
      <stop offset="50%" stop-color="#D3A357" stop-opacity="0.18"></stop>
      <stop offset="100%" stop-color="#D3A357" stop-opacity="0"></stop>
    </linearGradient>
    <filter id="blur" x="-50%" y="-50%" width="200%" height="200%">
      <feGaussianBlur stdDeviation="14"></feGaussianBlur>
    </filter>
  </defs>
  
  
  <rect width="540" height="675" fill="url(#bg)"></rect>
  
  
  <ellipse cx="270" cy="520" rx="220" ry="40" fill="#0E0B09" opacity="0.04" filter="url(#blur)"></ellipse>
  
  
  <rect width="540" height="675" fill="url(#rim)" opacity="0.4"></rect>
  
  
  <path d="M 90,500 L 95,415 Q 110,295 280,300 Q 440,310 445,425 L 450,500 Z" fill="url(#silhouette)"></path>
  
  
  <path d="M 210,180 Q 210,110 275,110 Q 350,110 350,185 Q 350,260 280,260 Q 210,260 210,180 Z" fill="url(#silhouette)"></path>
  
  
  <path d="M 245,250 L 245,310 L 295,310 L 295,250 Z" fill="url(#silhouette)"></path>
  
  
  <ellipse cx="285" cy="135" rx="40" ry="18" fill="#3A2A1F" opacity="0.55"></ellipse>
  
  
  <line x1="490" y1="40" x2="490" y2="635" stroke="#D3A357" stroke-width="0.6" opacity="0.65"></line>
  
  
  <text x="490" y="610" text-anchor="end" font-family="Georgia, serif" font-size="22" font-weight="600" fill="#0E0B09" letter-spacing="3">A. Y. F.</text>
  <text x="490" y="630" text-anchor="end" font-family="Georgia, serif" font-size="9" font-style="italic" fill="#7A7468" letter-spacing="2.5" text-transform="uppercase">Directeur General</text>
</svg>